<svg xmlns="http://www.w3.org/2000/svg" viewBox="0 0 96 96" fill="none">
  <g transform="translate(6, 2)">
    <!-- Tree canopy -->
    <ellipse cx="42" cy="28" rx="28" ry="24" fill="#2D5A27"/>
    <ellipse cx="28" cy="35" rx="20" ry="17" fill="#3A7233"/>
    <ellipse cx="56" cy="33" rx="17" ry="15" fill="#3A7233"/>
    <ellipse cx="42" cy="21" rx="18" ry="15" fill="#4A8B43"/>

    <!-- Trunk -->
    <path d="M37 46 L35 76 Q35 81 40 81 L44 81 Q49 81 49 76 L47 46" fill="#6B4226"/>
    <path d="M39 53 Q42 55 45 53" stroke="#8B5A3A" stroke-width="1" fill="none"/>
    <path d="M38 62 Q42 64 46 62" stroke="#8B5A3A" stroke-width="1" fill="none"/>
    <path d="M37 71 Q42 73 47 71" stroke="#8B5A3A" stroke-width="1" fill="none"/>

    <!-- Grass blades -->
    <path d="M14 90 Q17 68 22 60 Q19 72 24 90 Z" fill="#2D5A27"/>
    <path d="M22 90 Q26 70 24 56 Q27 66 30 90 Z" fill="#3A7233"/>
    <path d="M28 90 Q28 72 33 62 Q31 74 35 90 Z" fill="#2D5A27"/>
    <path d="M49 90 Q51 72 49 60 Q52 68 56 90 Z" fill="#3A7233"/>
    <path d="M54 90 Q58 68 61 58 Q58 72 62 90 Z" fill="#2D5A27"/>
    <path d="M60 90 Q63 72 67 64 Q63 76 70 90 Z" fill="#3A7233"/>

    <!-- Ground -->
    <ellipse cx="42" cy="88" rx="34" ry="4" fill="#2D5A27" opacity="0.3"/>
  </g>
</svg>
